# ASF file generated by Tido's ASF writer for MATLAB.
:version 1.10
:name VICON
:units
  mass 1
  length 0.45000000000000001
  angle deg
:documentation
   .ast/.asf automatically generated from VICON data using
   VICON BodyBuilder and BodyLanguage model FoxedUp or BRILLIANT.MOD
:root
  axis xyz
  order tx ty tz rx ry rz 
  position 0 0 0
  orientation 0 0 0
:bonedata
  begin
    id 1
    name lhipjoint
    direction 0.44017800000000001 -0.82263900000000001 0.359871
    length 1.1390085000000001
    axis 0 0 0 xyz
  end
  begin
    id 2
    name lfemur
    direction 0.34201999999999999 -0.939693 0
    length 3.5465939999999998
    axis 0 0 20 xyz
    dof rx ry rz 
    limits (-160 20)
           (-70 70)
           (-60 70)
  end
  begin
    id 3
    name ltibia
    direction 0.34201999999999999 -0.939693 0
    length 3.7970234999999999
    axis 0 0 20 xyz
    dof rx 
    limits (-10 170)
  end
  begin
    id 4
    name lfoot
    direction 0.088635099999999994 -0.24352299999999999 0.96583699999999995
    length 1.1853629999999999
    axis -90 7.62852e-016 20 xyz
    dof rx rz 
    limits (-45 90)
           (-70 20)
  end
  begin
    id 5
    name ltoes
    direction 1.53703e-011 -4.2171700000000001e-011 1
    length 0.59142150000000004
    axis -90 7.62852e-016 20 xyz
    dof rx 
    limits (-90 20)
  end
  begin
    id 6
    name rhipjoint
    direction -0.399779 -0.83977299999999999 0.367367
    length 1.115766
    axis 0 0 0 xyz
  end
  begin
    id 7
    name rfemur
    direction -0.34201999999999999 -0.939693 0
    length 3.4866269999999999
    axis 0 0 -20 xyz
    dof rx ry rz 
    limits (-160 20)
           (-70 70)
           (-70 60)
  end
  begin
    id 8
    name rtibia
    direction -0.34201999999999999 -0.939693 0
    length 3.9349440000000002
    axis 0 0 -20 xyz
    dof rx 
    limits (-10 170)
  end
  begin
    id 9
    name rfoot
    direction -0.108514 -0.29813899999999999 0.94833400000000001
    length 1.1974590000000001
    axis -90 -7.62852e-016 -20 xyz
    dof rx rz 
    limits (-45 90)
           (-20 70)
  end
  begin
    id 10
    name rtoes
    direction -1.5339199999999999e-011 -4.2207699999999999e-011 1
    length 0.59392350000000005
    axis -90 -7.62852e-016 -20 xyz
    dof rx 
    limits (-90 20)
  end
  begin
    id 11
    name lowerback
    direction 0.011325699999999999 0.99986600000000003 0.0118602
    length 1.164123
    axis 0 0 0 xyz
    dof rx ry rz 
    limits (-20 45)
           (-30 30)
           (-30 30)
  end
  begin
    id 12
    name upperback
    direction -0.016474699999999998 0.99519299999999999 -0.096537499999999998
    length 1.135656
    axis 0 0 0 xyz
    dof rx ry rz 
    limits (-20 45)
           (-30 30)
           (-30 30)
  end
  begin
    id 13
    name thorax
    direction -0.019430099999999999 0.99433000000000005 -0.10455200000000001
    length 1.1524455
    axis 0 0 0 xyz
    dof rx ry rz 
    limits (-20 45)
           (-30 30)
           (-30 30)
  end
  begin
    id 14
    name lowerneck
    direction 0.014854300000000001 0.995587 -0.092657000000000003
    length 0.772119
    axis 0 0 0 xyz
    dof rx ry rz 
    limits (-20 45)
           (-30 30)
           (-30 30)
  end
  begin
    id 15
    name upperneck
    direction -0.0135467 0.99365599999999998 -0.111639
    length 0.76021650000000007
    axis 0 0 0 xyz
    dof rx ry rz 
    limits (-20 45)
           (-30 30)
           (-30 30)
  end
  begin
    id 16
    name head
    direction -0.0061534900000000002 0.99954699999999996 -0.029447999999999998
    length 0.78578999999999999
    axis 0 0 0 xyz
    dof rx ry rz 
    limits (-20 45)
           (-30 30)
           (-30 30)
  end
  begin
    id 17
    name lclavicle
    direction 0.98826700000000001 0.14988499999999999 0.029371299999999999
    length 2.012499
    axis 0 0 0 xyz
    dof ry rz 
    limits (-20 10)
           (0 20)
  end
  begin
    id 18
    name lhumerus
    direction 1 -4.4898600000000001e-011 -1.1483300000000001e-027
    length 2.4171659999999999
    axis 180 -30 -90 xyz
    dof rx ry rz 
    limits (-60 90)
           (-90 90)
           (-90 90)
  end
  begin
    id 19
    name lradius
    direction 0.99999800000000005 0.00170963 -0.00098705499999999992
    length 1.773954
    axis 180 -30 -90 xyz
    dof rx 
    limits (-10 170)
  end
  begin
    id 20
    name lwrist
    direction 0.99999800000000005 7.53149e-005 -0.00194706
    length 0.88697700000000002
    axis 4.6505600000000004e-015 90 90 xyz
    dof ry 
    limits (-180 0)
  end
  begin
    id 21
    name lhand
    direction 1 -4.48973e-011 -1.3174599999999999e-026
    length 0.5306265
    axis 8.4064999999999996e-015 90 90 xyz
    dof rx rz 
    limits (-90 90)
           (-45 45)
  end
  begin
    id 22
    name lfingers
    direction 1 -4.49107e-011 -2.6349199999999999e-026
    length 0.42780555000000003
    axis 1.6812999999999999e-014 90 90 xyz
    dof rx 
    limits (0 90)
  end
  begin
    id 23
    name lthumb
    direction 0.70710700000000004 -6.3504800000000005e-011 0.70710700000000004
    length 0.6142455
    axis -90 45 2.8529899999999998e-015 xyz
    dof rx rz 
    limits (-45 45)
           (-45 45)
  end
  begin
    id 24
    name rclavicle
    direction -0.996699 0.064289499999999999 -0.049572499999999999
    length 2.0817494999999999
    axis 0 0 0 xyz
    dof ry rz 
    limits (-10 20)
           (-20 0)
  end
  begin
    id 25
    name rhumerus
    direction -1 -4.4891899999999998e-011 -2.4105900000000001e-027
    length 2.474145
    axis 180 30 90 xyz
    dof rx ry rz 
    limits (-90 60)
           (-90 90)
           (-90 90)
  end
  begin
    id 26
    name rradius
    direction -0.99999899999999997 0.0011810099999999999 -0.00068185800000000003
    length 1.5677145000000001
    axis 180 30 90 xyz
    dof rx 
    limits (-10 170)
  end
  begin
    id 27
    name rwrist
    direction -0.99999899999999997 0.000321823 -0.00132288
    length 0.78385499999999997
    axis 4.6505600000000004e-015 -90 -90 xyz
    dof ry 
    limits (-180 0)
  end
  begin
    id 28
    name rhand
    direction -1 -4.4902199999999998e-011 -1.3174599999999999e-026
    length 0.60719400000000001
    axis 8.4064999999999996e-015 -90 -90 xyz
    dof rx rz 
    limits (-90 90)
           (-45 45)
  end
  begin
    id 29
    name rfingers
    direction -1 -4.4917800000000002e-011 -2.6349199999999999e-026
    length 0.48953249999999998
    axis 1.6812999999999999e-014 -90 -90 xyz
    dof rx 
    limits (0 90)
  end
  begin
    id 30
    name rthumb
    direction -0.70710700000000004 -6.3471300000000002e-011 0.70710700000000004
    length 0.70287750000000004
    axis -90 -45 -2.8529899999999998e-015 xyz
    dof rx rz 
    limits (-45 45)
           (-45 45)
  end
:hierarchy
begin
  root lhipjoint rhipjoint lowerback 
  lhipjoint lfemur 
  lfemur ltibia 
  ltibia lfoot 
  lfoot ltoes 
  rhipjoint rfemur 
  rfemur rtibia 
  rtibia rfoot 
  rfoot rtoes 
  lowerback upperback 
  upperback thorax 
  thorax lowerneck lclavicle rclavicle 
  lowerneck upperneck 
  upperneck head 
  lclavicle lhumerus 
  lhumerus lradius 
  lradius lwrist 
  lwrist lhand lthumb 
  lhand lfingers 
  rclavicle rhumerus 
  rhumerus rradius 
  rradius rwrist 
  rwrist rhand rthumb 
  rhand rfingers 
end

# AMC file generated by Tido's AMC writer for MATLAB on 27-Nov-2005 at 18:24:20
# Corresponding ASF file: S:\data_MoCap\MoCaDaDB\HDM\Bonn_ASF_AMC_Use IK_on\björn\bjorn.asf
# Number of frames: 542
# Sampling rate: 120
:fully-specified
:degrees
339
root 9.3127050000000011 8.4076650000000015 -9.8883450000000011 0.38067000000000001 37.234499999999997 363.709 
lfemur -24.027999999999999 -0.16633899999999999 -16.730599999999999 
ltibia 40.949300000000001 
lfoot -8.6863899999999994 -6.2269300000000003 
ltoes -21.071400000000001 
rfemur 6.3775500000000003 4.9725599999999996 14.7126 
rtibia 51.362299999999998 
rfoot 27.465800000000002 10.302 
rtoes 1.51431 
lowerback -2.6138499999999998 2.8922500000000002 -3.5863700000000001 
upperback 10.4176 4.9023700000000003 -4.0565100000000003 
thorax 12.8497 2.3512400000000002 -1.7458800000000001 
lowerneck 2.1023399999999999 -6.1629899999999997 -0.57974300000000001 
upperneck 13.2463 -9.2953499999999991 10.8485 
head 4.1467799999999997 -4.0733300000000003 3.1227800000000001 
lclavicle 6.7586799999999996e-015 3.8961800000000003e-014 
lhumerus -17.140599999999999 42.473799999999997 70.551500000000004 
lradius 7.1427500000000004 
lwrist -65.6096 
lhand -17.026 -3.1898300000000002 
lfingers 7.1250200000000001 
lthumb 9.2102400000000006 26.588999999999999 
rclavicle 6.7586799999999996e-015 3.8961800000000003e-014 
rhumerus -22.7941 -13.7227 -92.988799999999998 
rradius 35.210799999999999 
rwrist 6.9490499999999997 
rhand -8.8440100000000008 8.5783699999999996 
rfingers 7.1250200000000001 
rthumb 17.096599999999999 -20.689399999999999 
340
root 9.37026 8.4206249999999994 -9.8415900000000001 0.34836600000000001 36.984900000000003 363.803 
lfemur -23.136700000000001 -0.331571 -16.9573 
ltibia 40.671300000000002 
lfoot -9.1899300000000004 -5.8047800000000001 
ltoes -21.394400000000001 
rfemur 4.9485099999999997 4.6054000000000004 14.4154 
rtibia 53.433100000000003 
rfoot 28.232600000000001 8.5471599999999999 
rtoes -1.48315 
lowerback -2.51437 2.8372099999999998 -3.7199800000000001 
upperback 10.4278 4.8350299999999997 -4.0789999999999997 
thorax 12.790800000000001 2.3078599999999998 -1.71078 
lowerneck 2.2403499999999998 -6.0862600000000002 -0.66979299999999997 
upperneck 13.2584 -9.1899300000000004 10.871499999999999 
head 4.12521 -4.0291399999999999 3.1535199999999999 
lclavicle -1.9878500000000001e-015 -2.8624999999999998e-014 
lhumerus -16.914999999999999 43.884900000000002 69.880499999999998 
lradius 7.7565499999999998 
lwrist -66.273600000000002 
lhand -17.386700000000001 -4.0514799999999997 
lfingers 7.1250200000000001 
lthumb 8.8621999999999996 25.7424 
rclavicle -1.9878500000000001e-015 -2.8624999999999998e-014 
rhumerus -22.8628 -15.370900000000001 -92.552800000000005 
rradius 32.669800000000002 
rwrist 8.5405700000000007 
rhand -8.2592800000000004 8.5683000000000007 
rfingers 7.1250200000000001 
rthumb 17.659300000000002 -20.649799999999999 
341
root 9.4268249999999991 8.4343050000000002 -9.7947900000000008 0.30657499999999999 36.717500000000001 363.86799999999999 
lfemur -22.238299999999999 -0.434502 -17.151399999999999 
ltibia 40.335299999999997 
lfoot -9.6332500000000003 -5.4405000000000001 
ltoes -21.5197 
rfemur 3.4692599999999998 4.2092799999999997 14.177199999999999 
rtibia 55.459200000000003 
rfoot 28.512599999999999 7.4299299999999997 
rtoes -5.7791399999999999 
lowerback -2.41696 2.7744900000000001 -3.82883 
upperback 10.432600000000001 4.7523900000000001 -4.0882800000000001 
thorax 12.7271 2.2585199999999999 -1.67665 
lowerneck 2.2875399999999999 -5.9990199999999998 -0.75793200000000005 
upperneck 13.346299999999999 -9.0785199999999993 10.8681 
head 4.1401500000000002 -3.9767800000000002 3.1723599999999998 
lclavicle 4.1347200000000001e-014 1.27222e-014 
lhumerus -16.628900000000002 45.340899999999998 69.213200000000001 
lradius 8.2518600000000006 
lwrist -66.907200000000003 
lhand -17.8034 -4.9760200000000001 
lfingers 7.1250200000000001 
lthumb 8.4601000000000006 24.834499999999998 
rclavicle 4.1347200000000001e-014 1.27222e-014 
rhumerus -22.9497 -17.188400000000001 -92.006699999999995 
rradius 30.18 
rwrist 10.455 
rhand -7.8603500000000004 8.6772100000000005 
rfingers 7.1250200000000001 
rthumb 18.043199999999999 -20.5059 
342
root 9.4821749999999998 8.4480749999999993 -9.7482150000000001 0.26782 36.509500000000003 363.911 
lfemur -21.356400000000001 -0.51077399999999995 -17.334900000000001 
ltibia 39.957099999999997 
lfoot -10.0486 -5.1401399999999997 
ltoes -21.7623 
rfemur 1.96889 3.74011 13.997 
rtibia 57.4099 
rfoot 28.3581 6.8985900000000004 
rtoes -10.4148 
lowerback -2.31311 2.6979000000000002 -3.92042 
upperback 10.4338 4.6465300000000003 -4.0824999999999996 
thorax 12.6549 2.19876 -1.6386799999999999 
lowerneck 2.2713000000000001 -5.9222200000000003 -0.84116199999999997 
upperneck 13.434200000000001 -8.9819999999999993 10.844799999999999 
head 4.1655899999999999 -3.9306199999999998 3.1814900000000002 
lclavicle 1.1927099999999999e-014 -3.5781199999999999e-014 
lhumerus -16.477599999999999 46.760800000000003 68.475999999999999 
lradius 8.86266 
lwrist -67.565399999999997 
lhand -17.966799999999999 -5.9234799999999996 
lfingers 7.1250200000000001 
lthumb 8.3023500000000006 23.8934 
rclavicle 1.1927099999999999e-014 -3.5781199999999999e-014 
rhumerus -23.189800000000002 -18.9496 -91.3489 
rradius 27.9267 
rwrist 12.318199999999999 
rhand -7.7042599999999997 8.9305000000000003 
rfingers 7.1250200000000001 
rthumb 18.1934 -20.238700000000001 
343
root 9.5360849999999999 8.4615749999999998 -9.7021800000000002 0.19390399999999999 36.341000000000001 363.89800000000002 
lfemur -20.5047 -0.57225400000000004 -17.456199999999999 
ltibia 39.584099999999999 
lfoot -10.4071 -4.9166699999999999 
ltoes -21.624099999999999 
rfemur 0.490346 3.19434 13.8848 
rtibia 59.245600000000003 
rfoot 27.857500000000002 6.7414500000000004 
rtoes -13.4095 
lowerback -2.18913 2.61849 -3.9454099999999999 
upperback 10.4359 4.5308200000000003 -4.0859300000000003 
thorax 12.577299999999999 2.1419199999999998 -1.6493199999999999 
lowerneck 2.1711999999999998 -5.86822 -0.78776800000000002 
upperneck 13.5916 -8.91831 10.749700000000001 
head 4.2200199999999999 -3.8913199999999999 3.1419000000000001 
lclavicle -5.2876699999999999e-014 2.3058999999999999e-014 
lhumerus -16.359200000000001 48.145299999999999 67.716300000000004 
lradius 9.5004200000000001 
lwrist -68.243200000000002 
lhand -18.112400000000001 -6.7375100000000003 
lfingers 7.1250200000000001 
lthumb 8.16188 23.084900000000001 
rclavicle -5.2876699999999999e-014 2.3058999999999999e-014 
rhumerus -23.6557 -20.796399999999998 -90.6036 
rradius 26.003 
rwrist 14.187900000000001 
rhand -7.5983599999999996 9.0953700000000008 
rfingers 7.1250200000000001 
rthumb 18.295300000000001 -20.064299999999999 
344
root 9.5887349999999998 8.4734099999999994 -9.657 0.113803 36.187399999999997 363.89100000000002 
lfemur -19.668800000000001 -0.518451 -17.589099999999998 
ltibia 39.2502 
lfoot -10.7933 -4.7822399999999998 
ltoes -21.721499999999999 
rfemur -0.95218000000000003 2.5914799999999998 13.7622 
rtibia 60.924999999999997 
rfoot 27.064900000000002 6.9855799999999997 
rtoes -14.885199999999999 
lowerback -2.0480200000000002 2.5184500000000001 -3.9942199999999999 
upperback 10.435600000000001 4.3838699999999999 -4.06046 
thorax 12.481299999999999 2.0656500000000002 -1.6195600000000001 
lowerneck 2.1720199999999998 -5.7931100000000004 -0.81118599999999996 
upperneck 13.6998 -8.8198000000000008 10.6807 
head 4.2445300000000001 -3.8429700000000002 3.1280000000000001 
lclavicle -1.19271e-015 1.03368e-014 
lhumerus -16.274699999999999 49.610700000000001 67.006699999999995 
lradius 10.1417 
lwrist -68.967100000000002 
lhand -18.266300000000001 -7.6538399999999998 
lfingers 7.1250200000000001 
lthumb 8.0133200000000002 22.174299999999999 
rclavicle -1.19271e-015 1.03368e-014 
rhumerus -24.1341 -22.6067 -89.740499999999997 
rradius 24.128499999999999 
rwrist 16.1249 
rhand -7.7350599999999998 9.1187799999999992 
rfingers 7.1250200000000001 
rthumb 18.163799999999998 -20.053100000000001 
345
root 9.6400799999999993 8.4823649999999997 -9.6137100000000011 0.0162922 36.027799999999999 363.85599999999999 
lfemur -18.892299999999999 -0.42827900000000002 -17.688500000000001 
ltibia 38.972000000000001 
lfoot -11.1646 -4.7139199999999999 
ltoes -21.514099999999999 
rfemur -2.3501699999999999 1.98302 13.6776 
rtibia 62.402200000000001 
rfoot 26.023900000000001 7.5939300000000003 
rtoes -15.4971 
lowerback -1.88371 2.4187099999999999 -4.0086700000000004 
upperback 10.4383 4.2323000000000004 -4.0293599999999996 
thorax 12.3766 1.99037 -1.60361 
lowerneck 2.19679 -5.7135800000000003 -0.76615999999999995 
upperneck 13.770099999999999 -8.7059700000000007 10.5646 
head 4.2480599999999997 -3.7884199999999999 3.0901000000000001 
lclavicle 1.0456099999999999e-013 -5.8045100000000001e-014 
lhumerus -14.438499999999999 44.951900000000002 68.767399999999995 
lradius 10.8873 
lwrist -63.431199999999997 
lhand -18.345500000000001 -7.56379 
lfingers 7.1250200000000001 
lthumb 7.9369300000000003 22.267199999999999 
rclavicle 1.0456099999999999e-013 -5.8045100000000001e-014 
rhumerus -24.7178 -24.778600000000001 -88.715599999999995 
rradius 22.3492 
rwrist 18.4147 
rhand -7.9382299999999999 9.1493800000000007 
rfingers 7.1250200000000001 
rthumb 17.968299999999999 -20.040600000000001 
